<svg version="1.2" xmlns="http://www.w3.org/2000/svg" viewBox="0 0 1000 200" width="1000" height="200">
	<title>screensize</title>
	<style>
		tspan { white-space:pre } 
		.s0 { fill: #842977 } 
		.s1 { fill: #292b84 } 
		.s2 { fill: #297284 } 
		.s3 { fill: #29843e } 
		.s4 { fill: #d5db33 } 
		.s5 { fill: #db8233 } 
		.s6 { fill: #ffffff } 
		.s7 { fill: #000000 } 
		.t8 { font-size: 36px;fill: #555;font-family: "Tahoma" } 
	</style>
	<path id="Rectangle 1" class="s0" d="m0 76h1140v17h-1140z"/>
	<path id="Rectangle 1 copy" class="s1" d="m0 76h900v17h-900z"/>
	<path id="Rectangle 1 copy 2" class="s2" d="m0 76h800v17h-800z"/>
	<path id="Rectangle 1 copy 3" class="s3" d="m0 76h700v17h-700z"/>
	<path id="Rectangle 1 copy 4" class="s4" d="m0 76h500v17h-500z"/>
	<path id="Rectangle 1 copy 5" class="s5" d="m0 76h401v17h-401z"/>
	<path id="40%" fill-rule="evenodd" class="s6" d="m368.6 85.7v0.9h-1.4v2.2h-1v-2.2h-5.7v-0.9l5.7-6.6h1v6.6zm-6.7 0h4.4v-5.3zm11-5.5q-0.7 0-1.1 0.1-0.5 0.1-0.8 0.4-0.2 0.3-0.3 0.8-0.2 0.5-0.2 1.2v2.6q0 0.7 0.2 1.2 0.1 0.5 0.4 0.8 0.3 0.3 0.8 0.4 0.4 0.1 1 0.1h1q0.7 0 1.2-0.1 0.4-0.1 0.7-0.4 0.3-0.3 0.4-0.8 0.1-0.5 0.1-1.2v-2.6q0-0.8-0.1-1.3-0.1-0.5-0.4-0.8-0.3-0.3-0.8-0.3-0.4-0.1-1.1-0.1zm0 8.6q-0.8 0-1.5-0.2-0.6-0.1-1-0.5-0.4-0.4-0.7-1.1-0.2-0.7-0.2-1.7v-2.6q0-1 0.2-1.7 0.3-0.7 0.7-1.1 0.4-0.5 1-0.6 0.7-0.2 1.5-0.2h1q0.9 0 1.5 0.2 0.7 0.1 1.1 0.5 0.4 0.5 0.6 1.2 0.3 0.7 0.3 1.7v2.6q0 1-0.2 1.7-0.2 0.7-0.7 1.1-0.4 0.4-1.1 0.5-0.6 0.2-1.5 0.2zm8-8.8q-0.5 0-0.8 0-0.3 0.1-0.5 0.3-0.2 0.2-0.3 0.5 0 0.3 0 0.8v1q0 0.5 0.1 0.8 0 0.3 0.2 0.5 0.2 0.2 0.5 0.2 0.3 0.1 0.8 0.1h0.4q0.5 0 0.8-0.1 0.3 0 0.5-0.2 0.2-0.2 0.2-0.5 0.1-0.3 0.1-0.8v-1q0-0.5-0.1-0.8 0-0.3-0.2-0.5-0.2-0.2-0.5-0.3-0.4 0-0.9 0zm0 5.1q-0.6 0-1.1-0.2-0.4-0.1-0.7-0.4-0.3-0.3-0.5-0.7-0.1-0.5-0.1-1.3v-0.8q0-0.8 0.1-1.2 0.2-0.5 0.4-0.8 0.3-0.3 0.8-0.5 0.4-0.1 1-0.1h0.5q0.7 0 1.1 0.1 0.5 0.1 0.8 0.4 0.3 0.3 0.5 0.8 0.1 0.5 0.1 1.3v0.8q0 0.8-0.1 1.3-0.2 0.4-0.4 0.7-0.3 0.3-0.8 0.4-0.4 0.2-1 0.2zm2 4.2l2.9-10.7h0.7l-2.9 10.7zm5-5.6q-0.4 0-0.7 0.1-0.3 0-0.5 0.2-0.2 0.2-0.3 0.5 0 0.4 0 0.9v0.9q0 0.5 0.1 0.8 0 0.3 0.2 0.5 0.2 0.2 0.5 0.3 0.3 0 0.8 0h0.4q0.5 0 0.8 0 0.3-0.1 0.5-0.3 0.1-0.1 0.2-0.5 0.1-0.3 0.1-0.8v-0.9q0-0.5-0.1-0.9 0-0.3-0.2-0.5-0.2-0.2-0.5-0.2-0.4-0.1-0.9-0.1zm0 5.1q-0.6 0-1.1-0.1-0.4-0.1-0.7-0.4-0.3-0.3-0.5-0.8-0.1-0.5-0.1-1.2v-0.9q0-0.7 0.1-1.2 0.2-0.5 0.4-0.8 0.3-0.3 0.8-0.4 0.4-0.2 1-0.2h0.5q0.7 0 1.1 0.2 0.5 0.1 0.8 0.4 0.3 0.3 0.5 0.8 0.1 0.5 0.1 1.2v0.9q0 0.7-0.1 1.2-0.2 0.5-0.4 0.8-0.3 0.3-0.8 0.4-0.4 0.1-1 0.1z"/>
	<path id="50%" fill-rule="evenodd" class="s7" d="m466.8 88.8q-1.4 0-2.3-0.7-0.8-0.6-0.8-2h1q0 0.9 0.5 1.3 0.5 0.4 1.6 0.4h1.2q0.7 0 1.1-0.1 0.5-0.1 0.7-0.4 0.3-0.2 0.4-0.7 0.1-0.4 0.1-0.9v-0.5q0-0.5-0.1-0.9-0.1-0.4-0.4-0.7-0.2-0.2-0.7-0.4-0.4-0.1-1.1-0.1h-1.1q-0.9 0-1.4 0.1-0.5 0.1-0.6 0.6h-1v-4.7h7.1v1h-6.1v2.6q0.1-0.1 0.2-0.2 0.1-0.1 0.4-0.2 0.2-0.1 0.5-0.2 0.4 0 1 0h1q1.7 0 2.5 0.7 0.8 0.8 0.8 2.3v0.6q0 0.8-0.2 1.4-0.1 0.6-0.5 1-0.4 0.4-1 0.5-0.6 0.2-1.6 0.2zm8.9-8.6q-0.6 0-1.1 0.1-0.4 0.1-0.7 0.4-0.3 0.3-0.4 0.8-0.1 0.5-0.1 1.3v2.5q0 0.7 0.1 1.2 0.2 0.5 0.5 0.8 0.3 0.3 0.7 0.4 0.4 0.1 1 0.1h1q0.7 0 1.2-0.1 0.5-0.1 0.8-0.4 0.3-0.3 0.4-0.8 0.1-0.5 0.1-1.2v-2.5q0-0.9-0.1-1.4-0.2-0.5-0.5-0.8-0.2-0.2-0.7-0.3-0.5-0.1-1.2-0.1zm0 8.6q-0.8 0-1.4-0.1-0.6-0.2-1.1-0.6-0.4-0.4-0.6-1.1-0.2-0.7-0.2-1.7v-2.5q0-1.1 0.2-1.8 0.2-0.7 0.6-1.1 0.4-0.4 1.1-0.6 0.6-0.2 1.4-0.2h1q0.9 0 1.6 0.2 0.6 0.1 1.1 0.6 0.4 0.4 0.6 1.1 0.2 0.7 0.2 1.8v2.5q0 1-0.2 1.7-0.2 0.7-0.6 1.1-0.5 0.4-1.1 0.6-0.7 0.1-1.6 0.1zm8-8.8q-0.5 0-0.8 0-0.3 0.1-0.5 0.3-0.1 0.2-0.2 0.5-0.1 0.3-0.1 0.9v0.9q0 0.5 0.1 0.8 0.1 0.3 0.3 0.5 0.2 0.2 0.5 0.3 0.3 0 0.8 0h0.3q0.5 0 0.8 0 0.3-0.1 0.5-0.3 0.2-0.2 0.3-0.5 0.1-0.3 0.1-0.8v-0.9q0-0.6-0.1-0.9-0.1-0.3-0.3-0.5-0.2-0.2-0.5-0.3-0.3 0-0.8 0zm0 5.1q-0.7 0-1.1-0.1-0.5-0.2-0.8-0.4-0.3-0.3-0.4-0.8-0.1-0.5-0.1-1.2v-0.9q0-0.7 0.1-1.2 0.1-0.5 0.4-0.8 0.3-0.3 0.7-0.4 0.5-0.2 1.1-0.2h0.5q0.6 0 1.1 0.1 0.5 0.2 0.8 0.5 0.3 0.3 0.4 0.8 0.2 0.5 0.2 1.2v0.9q0 0.7-0.2 1.2-0.1 0.5-0.4 0.8-0.3 0.2-0.7 0.4-0.5 0.1-1.1 0.1zm2 4.2l2.9-10.7h0.7l-2.9 10.7zm5.1-5.6q-0.5 0-0.8 0.1-0.3 0-0.5 0.2-0.1 0.2-0.2 0.5-0.1 0.4-0.1 0.9v0.9q0 0.5 0.1 0.8 0.1 0.4 0.3 0.5 0.1 0.2 0.5 0.3 0.3 0.1 0.8 0.1h0.3q0.5 0 0.8-0.1 0.3-0.1 0.5-0.2 0.2-0.2 0.3-0.5 0.1-0.4 0.1-0.9v-0.9q0-0.5-0.1-0.9-0.1-0.3-0.3-0.5-0.2-0.2-0.5-0.2-0.3-0.1-0.8-0.1zm0 5.1q-0.7 0-1.1-0.1-0.5-0.1-0.8-0.4-0.3-0.3-0.4-0.8-0.1-0.5-0.1-1.2v-0.9q0-0.7 0.1-1.2 0.1-0.5 0.4-0.8 0.3-0.3 0.7-0.4 0.4-0.1 1.1-0.1h0.5q0.6 0 1.1 0.1 0.5 0.1 0.8 0.4 0.3 0.3 0.4 0.8 0.2 0.5 0.2 1.2v0.9q0 0.7-0.2 1.2-0.1 0.5-0.4 0.8-0.3 0.3-0.7 0.4-0.5 0.1-1.1 0.1z"/>
	<path id="70%" fill-rule="evenodd" class="s6" d="m666.9 88.8h-1.1l5.6-8.8h-6.7v-0.9h7.6v1.2zm9.1-8.6q-0.7 0-1.1 0.1-0.5 0.1-0.8 0.4-0.2 0.3-0.4 0.8-0.1 0.5-0.1 1.3v2.5q0 0.7 0.2 1.2 0.1 0.5 0.4 0.8 0.3 0.3 0.7 0.4 0.5 0.1 1.1 0.1h1q0.7 0 1.2-0.1 0.4-0.1 0.7-0.4 0.3-0.3 0.4-0.8 0.1-0.5 0.1-1.2v-2.5q0-0.9-0.1-1.4-0.1-0.5-0.4-0.7-0.3-0.3-0.8-0.4-0.4-0.1-1.1-0.1zm0 8.6q-0.8 0-1.5-0.1-0.6-0.2-1-0.6-0.4-0.4-0.7-1.1-0.2-0.7-0.2-1.7v-2.5q0-1.1 0.2-1.8 0.2-0.7 0.7-1.1 0.4-0.4 1-0.6 0.6-0.2 1.5-0.2h1q0.9 0 1.5 0.2 0.7 0.2 1.1 0.6 0.4 0.4 0.6 1.1 0.3 0.7 0.3 1.8v2.5q0 1-0.3 1.7-0.2 0.7-0.6 1.1-0.4 0.4-1.1 0.6-0.6 0.1-1.5 0.1zm7.9-8.8q-0.4 0-0.7 0.1-0.3 0-0.5 0.2-0.2 0.2-0.3 0.5 0 0.4 0 0.9v0.9q0 0.5 0.1 0.8 0 0.3 0.2 0.5 0.2 0.2 0.5 0.3 0.3 0 0.8 0h0.4q0.5 0 0.8 0 0.3-0.1 0.5-0.3 0.2-0.1 0.2-0.5 0.1-0.3 0.1-0.8v-0.9q0-0.5-0.1-0.9 0-0.3-0.2-0.5-0.2-0.2-0.5-0.2-0.4-0.1-0.9-0.1zm0 5.1q-0.6 0-1.1-0.1-0.4-0.1-0.7-0.4-0.3-0.3-0.5-0.8-0.1-0.5-0.1-1.2v-0.9q0-0.7 0.1-1.2 0.2-0.5 0.4-0.8 0.3-0.3 0.8-0.4 0.4-0.2 1-0.2h0.5q0.7 0 1.1 0.2 0.5 0.1 0.8 0.4 0.3 0.3 0.5 0.8 0.1 0.5 0.1 1.2v0.9q0 0.7-0.1 1.2-0.2 0.5-0.4 0.8-0.3 0.3-0.8 0.4-0.4 0.1-1 0.1zm2 4.2l2.9-10.7h0.7l-2.9 10.7zm5-5.6q-0.4 0-0.8 0.1-0.3 0.1-0.4 0.3-0.2 0.1-0.3 0.5 0 0.3 0 0.8v0.9q0 0.5 0 0.9 0.1 0.3 0.3 0.5 0.2 0.1 0.5 0.2 0.3 0.1 0.8 0.1h0.4q0.5 0 0.8-0.1 0.3-0.1 0.5-0.2 0.1-0.2 0.2-0.5 0.1-0.4 0.1-0.9v-0.9q0-0.5-0.1-0.8 0-0.4-0.2-0.5-0.2-0.2-0.5-0.3-0.4-0.1-0.9-0.1zm0 5.1q-0.6 0-1.1-0.1-0.4-0.1-0.7-0.4-0.3-0.3-0.5-0.8-0.1-0.4-0.1-1.2v-0.9q0-0.7 0.1-1.2 0.1-0.5 0.4-0.8 0.3-0.3 0.7-0.4 0.5-0.1 1.1-0.1h0.5q0.7 0 1.1 0.1 0.5 0.1 0.8 0.4 0.3 0.3 0.5 0.8 0.1 0.5 0.1 1.2v0.9q0 0.8-0.1 1.2-0.2 0.5-0.5 0.8-0.2 0.3-0.7 0.4-0.4 0.1-1 0.1z"/>
	<path id="80%" fill-rule="evenodd" class="s6" d="m771.3 86.2q0 0.5-0.1 0.9-0.1 0.3-0.4 0.5-0.2 0.2-0.6 0.3-0.4 0-0.9 0h-1.6q-0.5 0-0.9 0-0.4-0.1-0.6-0.3-0.3-0.2-0.4-0.5-0.1-0.4-0.1-0.9 0-0.5 0.1-0.9 0.1-0.3 0.4-0.5 0.2-0.2 0.6-0.3 0.4-0.1 0.9-0.1h1.6q0.5 0 0.9 0.1 0.4 0.1 0.6 0.3 0.3 0.2 0.4 0.5 0.1 0.4 0.1 0.9zm-0.1-5.4q-0.1-0.3-0.3-0.5-0.3-0.2-0.6-0.3-0.4-0.1-1-0.1h-1.6q-0.5 0-0.9 0.1-0.4 0.1-0.6 0.3-0.3 0.2-0.4 0.5-0.1 0.3-0.1 0.9 0 0.4 0.2 0.7 0.1 0.3 0.3 0.5 0.3 0.2 0.7 0.3 0.4 0.1 0.9 0.1h1.4q0.6 0 1-0.1 0.3-0.1 0.6-0.3 0.2-0.2 0.4-0.5 0.1-0.3 0.1-0.7 0-0.6-0.1-0.9zm-5.7 7.6q-0.8-0.6-0.8-2v-0.4q0-0.6 0.2-1 0.1-0.3 0.3-0.6 0.3-0.2 0.6-0.4 0.3-0.1 0.7-0.2-0.7 0-1.3-0.5-0.5-0.5-0.5-1.5v-0.6q0-0.5 0.2-0.9 0.1-0.4 0.4-0.7 0.4-0.3 0.9-0.4 0.5-0.2 1.2-0.2h2.2q1.4 0 2.1 0.6 0.6 0.6 0.6 1.6v0.6q0 1-0.5 1.5-0.5 0.5-1.3 0.5 0.4 0.1 0.7 0.2 0.3 0.2 0.6 0.4 0.2 0.3 0.4 0.6 0.1 0.4 0.1 1v0.4q0 1.4-0.7 2-0.8 0.5-2.3 0.5h-1.6q-1.5 0-2.2-0.5zm11.2-8.2q-0.6 0-1.1 0.1-0.4 0.1-0.7 0.4-0.3 0.3-0.4 0.8-0.1 0.5-0.1 1.3v2.5q0 0.7 0.1 1.2 0.2 0.5 0.5 0.8 0.3 0.3 0.7 0.4 0.4 0.1 1 0.1h1q0.7 0 1.2-0.1 0.5-0.1 0.8-0.4 0.2-0.3 0.4-0.8 0.1-0.5 0.1-1.2v-2.5q0-0.9-0.1-1.4-0.2-0.5-0.5-0.8-0.3-0.2-0.7-0.3-0.5-0.1-1.2-0.1zm0 8.6q-0.8 0-1.4-0.1-0.6-0.2-1.1-0.6-0.4-0.4-0.6-1.1-0.2-0.7-0.2-1.7v-2.5q0-1.1 0.2-1.8 0.2-0.7 0.6-1.1 0.4-0.4 1.1-0.6 0.6-0.2 1.4-0.2h1q0.9 0 1.6 0.2 0.6 0.1 1.1 0.6 0.4 0.4 0.6 1.1 0.2 0.7 0.2 1.8v2.5q0 1-0.2 1.7-0.2 0.7-0.6 1.1-0.5 0.4-1.1 0.6-0.7 0.1-1.6 0.1zm8-8.8q-0.5 0-0.8 0-0.3 0.1-0.5 0.3-0.1 0.2-0.2 0.5-0.1 0.3-0.1 0.9v0.9q0 0.5 0.1 0.8 0.1 0.3 0.3 0.5 0.1 0.2 0.5 0.3 0.3 0 0.8 0h0.3q0.5 0 0.8 0 0.3-0.1 0.5-0.3 0.2-0.2 0.3-0.5 0.1-0.3 0.1-0.8v-0.9q0-0.6-0.1-0.9-0.1-0.3-0.3-0.5-0.2-0.2-0.5-0.3-0.3 0-0.8 0zm0 5.1q-0.7 0-1.1-0.1-0.5-0.2-0.8-0.4-0.3-0.3-0.4-0.8-0.1-0.5-0.1-1.2v-0.9q0-0.7 0.1-1.2 0.1-0.5 0.4-0.8 0.3-0.3 0.7-0.4 0.4-0.2 1.1-0.2h0.5q0.6 0 1.1 0.1 0.5 0.2 0.8 0.5 0.3 0.3 0.4 0.8 0.2 0.5 0.2 1.2v0.9q0 0.7-0.2 1.2-0.1 0.5-0.4 0.8-0.3 0.2-0.7 0.4-0.5 0.1-1.1 0.1zm2 4.2l2.9-10.7h0.7l-2.9 10.7zm5.1-5.6q-0.5 0-0.8 0.1-0.3 0-0.5 0.2-0.2 0.2-0.2 0.5-0.1 0.4-0.1 0.9v0.9q0 0.5 0.1 0.8 0.1 0.4 0.3 0.5 0.1 0.2 0.5 0.3 0.3 0.1 0.7 0.1h0.4q0.5 0 0.8-0.1 0.3-0.1 0.5-0.2 0.2-0.2 0.3-0.5 0-0.4 0.1-0.9v-0.9q-0.1-0.5-0.1-0.9-0.1-0.3-0.3-0.5-0.2-0.2-0.5-0.2-0.3-0.1-0.8-0.1zm0 5.1q-0.7 0-1.1-0.1-0.5-0.1-0.8-0.4-0.3-0.3-0.4-0.8-0.2-0.5-0.2-1.2v-0.9q0-0.7 0.2-1.2 0.1-0.5 0.4-0.8 0.3-0.3 0.7-0.4 0.4-0.1 1.1-0.1h0.4q0.7 0 1.2 0.1 0.5 0.1 0.8 0.4 0.3 0.3 0.4 0.8 0.2 0.5 0.2 1.2v0.9q0 0.7-0.2 1.2-0.1 0.5-0.4 0.8-0.3 0.3-0.7 0.4-0.5 0.1-1.1 0.1z"/>
	<path id="90%" fill-rule="evenodd" class="s6" d="m864.5 85q-0.8-0.6-0.8-2v-0.6q0-1.5 0.8-2.2 0.8-0.7 2.4-0.7h1.3q1.6 0 2.5 0.7 0.9 0.7 0.9 2.2v3.7q0 1-0.2 1.6-0.2 0.6-0.6 1-0.5 0.3-1.1 0.5-0.6 0.1-1.5 0.1h-1.1q-1.6 0-2.5-0.6-0.8-0.7-0.8-2.1h1q0 0.4 0.1 0.8 0.1 0.3 0.4 0.5 0.3 0.2 0.7 0.3 0.4 0.1 1.1 0.1h1q0.7 0 1.2-0.1 0.5-0.1 0.8-0.3 0.3-0.3 0.4-0.7 0.1-0.5 0.1-1.2v-1.2q-0.2 0.2-0.4 0.4-0.1 0.1-0.4 0.2-0.3 0.1-0.7 0.2-0.4 0-0.9 0h-1.2q-1.7 0-2.5-0.6zm2.4-4.4q-0.6 0-1 0.1-0.5 0.1-0.7 0.3-0.3 0.3-0.4 0.7-0.1 0.3-0.1 0.8v0.4q0 1 0.6 1.4 0.6 0.3 1.8 0.3h0.9q0.9 0 1.4-0.1 0.5-0.1 0.8-0.4 0.2-0.2 0.3-0.5 0.1-0.3 0.1-0.6v-0.6q0-0.5-0.1-0.8-0.1-0.3-0.4-0.6-0.3-0.2-0.8-0.3-0.5-0.1-1.2-0.1zm9 0.1q-0.7 0-1.1 0.1-0.5 0.1-0.7 0.4-0.3 0.2-0.4 0.8-0.2 0.5-0.2 1.2v2.5q0 0.8 0.2 1.3 0.1 0.5 0.4 0.8 0.3 0.3 0.8 0.4 0.4 0.1 1 0.1h1q0.7 0 1.2-0.1 0.4-0.1 0.7-0.4 0.3-0.3 0.4-0.8 0.2-0.5 0.2-1.3v-2.5q0-0.8-0.2-1.3-0.1-0.5-0.4-0.8-0.3-0.3-0.8-0.4-0.4 0-1.1 0zm0 8.6q-0.8 0-1.4-0.2-0.7-0.1-1.1-0.6-0.4-0.4-0.6-1-0.3-0.7-0.3-1.8v-2.5q0-1 0.3-1.7 0.2-0.7 0.6-1.1 0.4-0.5 1-0.6 0.7-0.2 1.5-0.2h1q0.9 0 1.5 0.1 0.7 0.2 1.1 0.6 0.4 0.4 0.7 1.2 0.2 0.7 0.2 1.7v2.5q0 1.1-0.2 1.8-0.2 0.7-0.7 1.1-0.4 0.4-1 0.5-0.7 0.2-1.6 0.2zm8-8.9q-0.5 0-0.8 0.1-0.3 0.1-0.5 0.3-0.2 0.2-0.2 0.5-0.1 0.3-0.1 0.8v1q0 0.4 0.1 0.8 0 0.3 0.2 0.5 0.2 0.2 0.5 0.2 0.3 0.1 0.8 0.1h0.4q0.5 0 0.8-0.1 0.3 0 0.5-0.2 0.2-0.2 0.2-0.5 0.1-0.3 0.1-0.8v-1q0-0.5 0-0.8-0.1-0.3-0.3-0.5-0.2-0.2-0.5-0.3-0.4-0.1-0.9-0.1zm0 5.2q-0.6 0-1.1-0.2-0.4-0.1-0.7-0.4-0.3-0.3-0.4-0.7-0.2-0.5-0.2-1.3v-0.8q0-0.8 0.1-1.3 0.2-0.4 0.5-0.7 0.2-0.3 0.7-0.5 0.4-0.1 1-0.1h0.5q0.7 0 1.2 0.1 0.4 0.1 0.7 0.4 0.3 0.3 0.5 0.8 0.1 0.5 0.1 1.3v0.8q0 0.8-0.1 1.3-0.1 0.4-0.4 0.7-0.3 0.3-0.8 0.4-0.4 0.2-1 0.2zm2 4.2l2.9-10.7h0.7l-2.9 10.7zm5.1-5.6q-0.5 0-0.8 0-0.3 0.1-0.5 0.3-0.2 0.2-0.2 0.5-0.1 0.3-0.1 0.9v0.9q0 0.5 0.1 0.8 0 0.3 0.2 0.5 0.2 0.2 0.5 0.3 0.3 0 0.8 0h0.4q0.5 0 0.8 0 0.3-0.1 0.5-0.3 0.2-0.2 0.2-0.5 0.1-0.3 0.1-0.8v-0.9q0-0.6-0.1-0.9 0-0.3-0.2-0.5-0.2-0.2-0.5-0.3-0.4 0-0.9 0zm0 5.1q-0.6 0-1.1-0.1-0.4-0.1-0.7-0.4-0.3-0.3-0.4-0.8-0.2-0.5-0.2-1.2v-0.9q0-0.7 0.1-1.2 0.2-0.5 0.4-0.8 0.3-0.3 0.8-0.4 0.4-0.2 1-0.2h0.5q0.7 0 1.2 0.2 0.4 0.1 0.7 0.4 0.3 0.3 0.5 0.8 0.1 0.5 0.1 1.2v0.9q0 0.7-0.1 1.2-0.1 0.5-0.4 0.8-0.3 0.3-0.8 0.4-0.4 0.1-1 0.1z"/>
	<path id="100%" fill-rule="evenodd" class="s6" d="m957.6 80.6l-2.4 2.4-0.7-0.6 2.7-2.8h1.4v9.7h-1zm5.9 0.1q-0.6 0-1.1 0.1-0.4 0.1-0.7 0.4-0.3 0.3-0.4 0.8-0.1 0.5-0.1 1.2v2.6q0 0.7 0.1 1.2 0.2 0.5 0.5 0.8 0.3 0.3 0.7 0.4 0.4 0.1 1 0.1h1q0.7 0 1.2-0.1 0.5-0.1 0.8-0.4 0.3-0.3 0.4-0.8 0.1-0.5 0.1-1.2v-2.6q0-0.8-0.1-1.3-0.2-0.5-0.5-0.8-0.2-0.3-0.7-0.4-0.5 0-1.2 0zm0 8.6q-0.8 0-1.4-0.2-0.6-0.1-1.1-0.5-0.4-0.5-0.6-1.1-0.2-0.7-0.2-1.7v-2.6q0-1 0.2-1.7 0.2-0.7 0.6-1.1 0.4-0.5 1.1-0.6 0.6-0.2 1.4-0.2h1.1q0.8 0 1.5 0.1 0.6 0.2 1.1 0.6 0.4 0.5 0.6 1.2 0.2 0.7 0.2 1.7v2.6q0 1-0.2 1.7-0.2 0.7-0.6 1.1-0.4 0.4-1.1 0.5-0.7 0.2-1.5 0.2zm8.7-8.6q-0.6 0-1.1 0.1-0.4 0.1-0.7 0.4-0.3 0.3-0.4 0.8-0.1 0.5-0.1 1.2v2.6q0 0.7 0.1 1.2 0.2 0.5 0.5 0.8 0.3 0.3 0.7 0.4 0.5 0.1 1 0.1h1.1q0.7 0 1.1-0.1 0.5-0.1 0.8-0.4 0.3-0.3 0.4-0.8 0.1-0.5 0.1-1.2v-2.6q0-0.8-0.1-1.3-0.2-0.5-0.5-0.8-0.2-0.3-0.7-0.4-0.5 0-1.1 0zm0 8.6q-0.9 0-1.5-0.2-0.6-0.1-1-0.5-0.5-0.5-0.7-1.1-0.2-0.7-0.2-1.7v-2.6q0-1 0.2-1.7 0.2-0.7 0.6-1.1 0.5-0.5 1.1-0.6 0.6-0.2 1.5-0.2h1q0.8 0 1.5 0.1 0.6 0.2 1.1 0.6 0.4 0.5 0.6 1.2 0.2 0.7 0.2 1.7v2.6q0 1-0.2 1.7-0.2 0.7-0.6 1.1-0.4 0.4-1.1 0.5-0.6 0.2-1.5 0.2zm7.9-8.9q-0.5 0-0.8 0.1-0.3 0.1-0.5 0.3-0.1 0.2-0.2 0.5-0.1 0.3-0.1 0.8v1q0 0.5 0.1 0.8 0.1 0.3 0.3 0.5 0.2 0.2 0.5 0.2 0.3 0.1 0.8 0.1h0.4q0.4 0 0.7-0.1 0.4 0 0.5-0.2 0.2-0.2 0.3-0.5 0.1-0.3 0.1-0.8v-1q0-0.5-0.1-0.8-0.1-0.3-0.3-0.5-0.1-0.2-0.5-0.3-0.3-0.1-0.8-0.1zm0 5.2q-0.7 0-1.1-0.2-0.5-0.1-0.8-0.4-0.3-0.3-0.4-0.7-0.1-0.5-0.1-1.3v-0.8q0-0.8 0.1-1.2 0.1-0.5 0.4-0.8 0.3-0.3 0.7-0.5 0.5-0.1 1.1-0.1h0.5q0.6 0 1.1 0.1 0.5 0.1 0.8 0.4 0.3 0.3 0.4 0.8 0.2 0.5 0.2 1.3v0.8q0 0.8-0.2 1.3-0.1 0.4-0.4 0.7-0.3 0.3-0.7 0.4-0.4 0.2-1.1 0.2zm2.1 4.2l2.8-10.7h0.7l-2.8 10.7zm5-5.6q-0.5 0-0.8 0.1-0.3 0-0.5 0.2-0.1 0.2-0.2 0.5-0.1 0.3-0.1 0.9v0.9q0 0.5 0.1 0.8 0.1 0.3 0.3 0.5 0.2 0.2 0.5 0.3 0.3 0 0.8 0h0.4q0.4 0 0.7 0 0.3-0.1 0.5-0.3 0.2-0.1 0.3-0.5 0.1-0.3 0.1-0.8v-0.9q0-0.6-0.1-0.9-0.1-0.3-0.3-0.5-0.2-0.2-0.5-0.2-0.3-0.1-0.8-0.1zm0 5.1q-0.7 0-1.1-0.1-0.5-0.1-0.8-0.4-0.3-0.3-0.4-0.8-0.1-0.5-0.1-1.2v-0.9q0-0.7 0.1-1.2 0.1-0.5 0.4-0.8 0.3-0.3 0.7-0.4 0.5-0.2 1.1-0.2h0.5q0.6 0 1.1 0.2 0.5 0.1 0.8 0.4 0.3 0.3 0.4 0.8 0.2 0.5 0.2 1.2v0.9q0 0.7-0.2 1.2-0.1 0.5-0.4 0.8-0.3 0.3-0.7 0.4-0.5 0.1-1.1 0.1z"/>
	<text id="screen size" style="transform: matrix(1,0,0,1,406.401,163.265);paint-order:stroke fill markers;stroke: #000000;stroke-width: 2;stroke-linejoin: round;" >
		<tspan  y="0" class="t8" dx="0 -1 -1 -1 -1 -1 -1 -1 -1 -1 -1" >Screen Size
</tspan>
	</text>
</svg>